<?xml version="1.0" encoding="utf-8"?>
<!-- Generator: Adobe Illustrator 21.0.0, SVG Export Plug-In . SVG Version: 6.00 Build 0)  -->
<svg version="1.1" id="图层_1" xmlns="http://www.w3.org/2000/svg" xmlns:xlink="http://www.w3.org/1999/xlink" x="0px" y="0px"
	 viewBox="0 0 100 100" style="enable-background:new 0 0 100 100;" xml:space="preserve">
<style type="text/css">
	.st0{fill:#FFFFFF;}
</style>
<path class="st0" d="M68,90.3H33.5c-12.6,0-22.8-10.2-22.8-22.8V33.1c0-12.6,10.2-22.8,22.8-22.8H68c12.6,0,22.8,10.2,22.8,22.8
	v34.5C90.7,80.1,80.5,90.3,68,90.3z M33.5,17.2c-8.8,0-15.9,7.1-15.9,15.9v34.5c0,8.8,7.1,15.9,15.9,15.9H68
	c8.8,0,15.9-7.1,15.9-15.9V33.1c0-8.8-7.1-15.9-15.9-15.9C68,17.2,33.5,17.2,33.5,17.2z M50.7,70.8c-11.3,0-20.5-9.2-20.5-20.5
	s9.2-20.5,20.5-20.5S71.2,39,71.2,50.3S62,70.8,50.7,70.8z M50.7,36.7c-7.5,0-13.6,6.1-13.6,13.6s6.1,13.6,13.6,13.6
	s13.6-6.1,13.6-13.6S58.2,36.7,50.7,36.7z M72.1,23.7c-2.7,0-4.9,2.2-4.9,4.9s2.2,4.9,4.9,4.9c2.7,0,4.9-2.2,4.9-4.9
	S74.8,23.7,72.1,23.7z"/>
</svg>
