<?xml version="1.0" standalone="no"?><!DOCTYPE svg PUBLIC "-//W3C//DTD SVG 1.1//EN" "http://www.w3.org/Graphics/SVG/1.1/DTD/svg11.dtd"><svg t="1500343627507" class="icon" style="" viewBox="0 0 1024 1024" version="1.1" xmlns="http://www.w3.org/2000/svg" p-id="1937" xmlns:xlink="http://www.w3.org/1999/xlink" width="64" height="64"><defs><style type="text/css"></style></defs><path d="M544.001 481.008l-168.736-128.45c-22.39-17.046-40.71-7.968-40.71 20.173v278.537c0 28.14 18.32 37.219 40.71 20.173l168.736-128.45c22.391-17.045 22.391-44.938 0-61.983z" p-id="1938" fill="#ffffff"></path><path d="M923.875 426.416C749.235 258.92 523.18 157.183 385.708 106.322c-66.032-24.43-138.285 16.973-150.536 86.305-0.62 3.504-1.22 7-1.815 10.492 126.971 39.377 331.948 116.853 490.755 243.41 44.435 35.41 43.282 94.74-3.216 128.273-89.891 64.826-255.91 168.232-488.31 245.961 0.526 3.213 1.05 6.395 1.578 9.51 11.998 71.02 86.55 113.131 153.405 86.328 253.7-101.718 434.862-237.493 532.814-322.505 50.504-43.834 51.755-121.391 3.492-167.68z" p-id="1939" fill="#ffffff"></path><path d="M233.357 203.12c-1.58-0.491-3.159-0.98-4.714-1.458-60.794-18.689-127.315 12.985-138.594 66.023-43.1 202.68-22.456 381.916-0.929 487.79 11.047 54.33 79.685 86.543 141.234 66.04 0.747-0.25 1.486-0.502 2.232-0.752-22.471-137.586-42.616-362.957 0.771-617.644z" p-id="1940" fill="#ffffff"></path></svg>