<?xml version="1.0" encoding="utf-8"?>
<!-- Generator: Adobe Illustrator 16.0.0, SVG Export Plug-In . SVG Version: 6.00 Build 0)  -->
<!DOCTYPE svg PUBLIC "-//W3C//DTD SVG 1.1//EN" "http://www.w3.org/Graphics/SVG/1.1/DTD/svg11.dtd">
<svg version="1.1" id="图层_1" xmlns="http://www.w3.org/2000/svg" xmlns:xlink="http://www.w3.org/1999/xlink" x="0px" y="0px"
	 width="566.1px" height="230.01px" viewBox="0 0 566.1 230.01" enable-background="new 0 0 566.1 230.01" xml:space="preserve">
<path id="brand_logo_white" fill="#FFFFFF" d="M510.765,229.245H545.7V218.28h-22.186v-34.17h-12.75V229.245L510.765,229.245z
	 M468.944,229.245h34.936V218.28h-22.186v-34.17h-12.75V229.245L468.944,229.245z M411.569,229.245h13.261l3.314-8.16h17.596
	l3.314,8.16h13.515l-19.38-45.391H430.95L411.569,229.245L411.569,229.245z M431.97,211.395l5.1-12.75l5.101,12.75H431.97
	L431.97,211.395z M361.335,229.5H372.3l9.18-26.01l9.181,26.01h10.965l15.3-45.391h-13.26l-7.905,26.011l-8.925-26.266H375.87
	l-8.926,26.266l-7.904-26.011h-13.516L361.335,229.5L361.335,229.5z M289.425,229.245h36.975v-10.71H301.92v-7.141h21.93v-9.689
	h-21.93v-6.885h24.225v-10.71h-36.72V229.245L289.425,229.245z M239.19,229.245h12.75V212.16h16.32v17.085h12.75v-44.88h-12.75
	v16.83h-16.32v-16.83h-12.75V229.245L239.19,229.245z M204.255,229.245h12.75v-34.17h13.77V184.11H190.74v10.965h13.77v34.17
	H204.255z M132.09,229.245h12.75V213.18h21.675v-10.455H144.84v-7.649h23.97v-10.966h-36.72V229.245L132.09,229.245z
	 M87.975,229.245h12.75V213.18H122.4v-10.455h-21.675v-7.649h23.97v-10.966h-36.72V229.245L87.975,229.245z M30.855,206.805
	c0,13.005,10.455,23.205,24.48,23.205c14.025,0,24.735-10.455,24.735-23.46l0,0c0-13.005-10.455-23.205-24.48-23.205
	C41.31,183.345,30.855,193.8,30.855,206.805L30.855,206.805 M67.32,206.805c0,6.375-4.59,11.985-11.73,11.985
	c-6.885,0-11.73-5.61-11.73-12.24l0,0c0-6.375,4.59-11.985,11.475-11.985C62.475,194.564,67.32,200.175,67.32,206.805L67.32,206.805
	 M555.899,202.47h8.67l1.53-18.359h-8.67L555.899,202.47L555.899,202.47z M8.67,184.11H0l1.53,18.359h8.67L8.67,184.11L8.67,184.11z
	 M542.13,202.47h8.67l1.53-18.359h-8.67L542.13,202.47L542.13,202.47z M23.97,202.47H15.3l-1.53-18.359h8.67L23.97,202.47
	L23.97,202.47z M225.675,109.905L237.15,75.99l11.22,33.915H225.675L225.675,109.905z M182.58,144.33h29.325l5.355-16.065h38.76
	l5.61,16.065h29.07l-36.976-102h-31.11L182.58,144.33L182.58,144.33z M496.484,137.955c0,0.51-0.255,0.765-1.02,0.765h-1.275v-1.785
	h1.275C495.975,136.935,496.484,137.19,496.484,137.955L496.484,137.955z M497.76,137.7c0-1.275-0.765-1.785-2.295-1.785h-2.55
	v5.865h1.274v-1.785h1.021l1.274,1.785h1.53l-1.53-2.041C497.25,139.229,497.76,138.72,497.76,137.7L497.76,137.7z M499.8,138.975
	c0,2.55-2.04,4.846-4.845,4.846c-2.806,0-4.846-2.04-4.846-4.846c0-2.55,2.04-4.845,4.846-4.845
	C497.76,134.13,499.8,136.17,499.8,138.975L499.8,138.975z M500.564,138.975c0-3.06-2.295-5.354-5.354-5.354
	c-3.061,0-5.355,2.55-5.355,5.354c0,3.061,2.295,5.355,5.355,5.355C498.27,144.33,500.564,141.78,500.564,138.975L500.564,138.975z
	 M328.439,92.565l38.25,51.51h23.971v-102h-27.54v55.59l-34.681-55.59h-26.52v102h26.52V92.565L328.439,92.565z M75.225,0
	c0.255,0.765,51.51,144.33,51.51,144.33h30.6L204.51,24.99h292.74L499.545,0H182.07L142.8,98.94L107.61,0H75.225 M490.62,71.145
	h-24.48c-2.295-6.12-5.1-10.71-18.87-10.71c-9.435,0-13.515,3.825-13.515,7.905c0,4.335,3.314,7.905,13.77,10.2l22.186,5.865
	c14.535,3.825,21.675,15.555,21.675,27.795c0,6.885-1.53,15.045-7.905,21.675c-4.845,5.101-12.24,11.729-36.21,11.729
	c-33.405,0-44.115-21.164-44.115-33.66h26.011c2.55,9.18,8.925,12.75,21.42,12.75c8.67,0,16.319-3.06,16.319-9.689
	c0-6.375-5.354-8.67-12.494-10.71l-17.596-4.845c-8.415-2.55-15.555-4.59-20.654-8.925c-13.261-11.22-12.24-31.365,2.04-41.82
	c7.904-5.865,16.064-8.67,28.814-8.67c15.045,0,23.715,4.335,30.601,8.925C483.479,53.04,490.62,62.985,490.62,71.145"/>
</svg>
